<svg xmlns="http://www.w3.org/2000/svg" width="60" height="60" viewBox="0 0 60 60">
  <g id="mobile_app_development_icon" transform="translate(-896 -1412)">
    <g id="Group_88" data-name="Group 88" transform="translate(910.481 1415.201)">
      <g id="Group_55" data-name="Group 55" transform="translate(1.024 0.453)">
        <path id="Path_61" data-name="Path 61" d="M49.4,7.368V53.03a2.782,2.782,0,0,1-2.716,2.834H23.615A2.782,2.782,0,0,1,20.9,53.03V7.368a2.782,2.782,0,0,1,2.715-2.834H46.686A2.782,2.782,0,0,1,49.4,7.368Z" transform="translate(-20.9 -4.534)" fill="#0a2463"/>
      </g>
      <g id="Group_56" data-name="Group 56" transform="translate(3.663 5.007)">
        <rect id="Rectangle_7" data-name="Rectangle 7" width="23.223" height="40.068" rx="2.56" fill="#fb3640"/>
      </g>
      <g id="Group_58" data-name="Group 58">
        <g id="Group_57" data-name="Group 57">
          <path id="Path_62" data-name="Path 62" d="M47.489,57.126H22.57a2.818,2.818,0,0,1-2.815-2.814V6.841A2.818,2.818,0,0,1,22.57,4.027H47.489A2.818,2.818,0,0,1,50.3,6.841v47.47A2.818,2.818,0,0,1,47.489,57.126ZM22.57,5.816a1.028,1.028,0,0,0-1.027,1.026v47.47a1.027,1.027,0,0,0,1.027,1.026H47.489a1.027,1.027,0,0,0,1.026-1.026V6.841a1.027,1.027,0,0,0-1.026-1.026Z" transform="translate(-19.755 -4.027)"/>
        </g>
      </g>
      <g id="Group_60" data-name="Group 60" transform="translate(3.26 4.311)">
        <g id="Group_59" data-name="Group 59">
          <path id="Path_63" data-name="Path 63" d="M45.141,8.847H25.689a2.294,2.294,0,0,0-2.29,2.29V48.019a2.294,2.294,0,0,0,2.29,2.29H45.141a2.294,2.294,0,0,0,2.29-2.29V11.137A2.294,2.294,0,0,0,45.141,8.847Zm1.4,39.172a1.4,1.4,0,0,1-1.4,1.4H25.689a1.4,1.4,0,0,1-1.4-1.4V11.137a1.4,1.4,0,0,1,1.4-1.4H45.141a1.4,1.4,0,0,1,1.4,1.4Z" transform="translate(-23.4 -8.847)"/>
        </g>
      </g>
      <g id="Group_62" data-name="Group 62" transform="translate(10.862 2.835)">
        <g id="Group_61" data-name="Group 61">
          <path id="Path_64" data-name="Path 64" d="M37.1,8.091H32.347a.447.447,0,1,1,0-.894H37.1a.447.447,0,1,1,0,.894Z" transform="translate(-31.9 -7.197)"/>
        </g>
      </g>
      <g id="Group_64" data-name="Group 64" transform="translate(17.18 2.741)">
        <g id="Group_63" data-name="Group 63">
          <path id="Path_65" data-name="Path 65" d="M40.941,7.986H39.412a.447.447,0,1,1,0-.894h1.529a.447.447,0,0,1,0,.894Z" transform="translate(-38.965 -7.092)"/>
        </g>
      </g>
      <g id="Group_66" data-name="Group 66" transform="translate(13.255 46.606)">
        <g id="Group_65" data-name="Group 65">
          <path id="Path_66" data-name="Path 66" d="M36.6,60.178a2.019,2.019,0,1,1,2.019-2.019A2.022,2.022,0,0,1,36.6,60.178Zm0-3.144a1.125,1.125,0,1,0,1.125,1.125A1.127,1.127,0,0,0,36.6,57.033Z" transform="translate(-34.576 -56.139)"/>
        </g>
      </g>
      <g id="Group_67" data-name="Group 67" transform="translate(5.598 10.205)">
        <rect id="Rectangle_8" data-name="Rectangle 8" width="18.459" height="15.669" rx="1.23" transform="translate(0.447 0.447)" fill="#f2f4f3"/>
        <path id="Path_67" data-name="Path 67" d="M43.82,32H27.561a1.549,1.549,0,0,1-1.547-1.547V16.985a1.549,1.549,0,0,1,1.547-1.547H43.82a1.549,1.549,0,0,1,1.547,1.547V30.454A1.549,1.549,0,0,1,43.82,32ZM27.561,16.332a.654.654,0,0,0-.653.653V30.454a.654.654,0,0,0,.653.653H43.82a.654.654,0,0,0,.653-.653V16.985a.654.654,0,0,0-.653-.653Z" transform="translate(-26.014 -15.438)" fill="#ce2d35"/>
      </g>
      <g id="Group_68" data-name="Group 68" transform="translate(5.598 28.118)">
        <rect id="Rectangle_9" data-name="Rectangle 9" width="18.459" height="8.791" rx="1.23" transform="translate(0.447 0.448)" fill="#f2f4f3"/>
        <path id="Path_68" data-name="Path 68" d="M43.82,45.153H27.561a1.549,1.549,0,0,1-1.547-1.547V37.014a1.549,1.549,0,0,1,1.547-1.547H43.82a1.549,1.549,0,0,1,1.547,1.547v6.591A1.549,1.549,0,0,1,43.82,45.153ZM27.561,36.361a.654.654,0,0,0-.653.653v6.591a.654.654,0,0,0,.653.653H43.82a.654.654,0,0,0,.653-.653V37.014a.654.654,0,0,0-.653-.653Z" transform="translate(-26.014 -35.467)" fill="#fc6c74"/>
      </g>
      <g id="Group_69" data-name="Group 69" transform="translate(10.221 16.953)">
        <path id="Path_69" data-name="Path 69" d="M37.977,27.03c-.116-.063-.224-.134-.34-.2a2.956,2.956,0,0,0,0-.689c.116-.072.233-.134.34-.206a.438.438,0,0,0,.179-.546l-.241-.59a.448.448,0,0,0-.519-.259c-.125.036-.25.063-.376.1a3.14,3.14,0,0,0-.492-.483c.036-.125.072-.259.1-.385a.448.448,0,0,0-.259-.519l-.59-.241a.452.452,0,0,0-.546.179c-.072.116-.134.233-.2.34a2.956,2.956,0,0,0-.689,0c-.072-.107-.134-.224-.206-.34a.452.452,0,0,0-.546-.179l-.59.241a.458.458,0,0,0-.259.519c.036.125.063.259.1.385a3.083,3.083,0,0,0-.483.483c-.134-.036-.259-.063-.385-.1a.453.453,0,0,0-.519.259l-.241.59a.448.448,0,0,0,.179.546c.116.072.233.134.34.206a2.956,2.956,0,0,0,0,.689c-.116.063-.224.134-.34.2a.453.453,0,0,0-.179.554l.241.581a.443.443,0,0,0,.519.259c.125-.027.25-.063.385-.1a3.141,3.141,0,0,0,.483.492c-.036.125-.063.25-.1.376a.448.448,0,0,0,.259.519l.59.241a.363.363,0,0,0,.17.036.439.439,0,0,0,.376-.215c.072-.107.134-.224.206-.34a2.956,2.956,0,0,0,.689,0c.063.116.125.233.2.34a.432.432,0,0,0,.546.179l.59-.241a.439.439,0,0,0,.259-.519c-.027-.125-.063-.25-.1-.376a2.845,2.845,0,0,0,.492-.492c.125.036.25.072.376.1a.439.439,0,0,0,.519-.259l.241-.581A.453.453,0,0,0,37.977,27.03Zm-2.853.51a1.145,1.145,0,0,1-.876,0,1.137,1.137,0,0,1,0-2.1,1.1,1.1,0,0,1,.438-.089,1.139,1.139,0,0,1,.438,2.191Z" transform="translate(-31.183 -22.983)" fill="#0a2463"/>
      </g>
      <g id="Group_70" data-name="Group 70" transform="translate(15.555 13.518)">
        <path id="Path_70" data-name="Path 70" d="M41.773,22.968c-.06-.072-.113-.148-.173-.221a2.116,2.116,0,0,0,.183-.456c.1-.016.19-.027.28-.046a.313.313,0,0,0,.264-.314l0-.455a.32.32,0,0,0-.274-.309c-.093-.01-.182-.025-.275-.035a2.243,2.243,0,0,0-.2-.451c.056-.073.116-.153.167-.228a.32.32,0,0,0-.034-.413l-.326-.317a.322.322,0,0,0-.409-.027c-.079.058-.151.118-.221.173a2.116,2.116,0,0,0-.456-.183c-.019-.09-.03-.183-.046-.28a.323.323,0,0,0-.314-.264l-.455,0a.326.326,0,0,0-.309.275c-.01.092-.028.188-.038.281a2.2,2.2,0,0,0-.448.19c-.08-.059-.155-.11-.228-.167a.324.324,0,0,0-.413.034l-.317.326a.319.319,0,0,0-.027.409c.058.079.118.151.17.227a2.145,2.145,0,0,0-.183.455c-.093.011-.183.03-.277.04a.323.323,0,0,0-.266.319l.005.45a.316.316,0,0,0,.274.309c.09.015.182.025.281.038a2.269,2.269,0,0,0,.19.454c-.057.073-.108.148-.165.222a.32.32,0,0,0,.034.413l.326.317a.255.255,0,0,0,.1.069.314.314,0,0,0,.306-.042c.076-.052.148-.113.227-.17a2.145,2.145,0,0,0,.455.183c.011.093.021.187.04.277a.308.308,0,0,0,.314.264l.455,0a.313.313,0,0,0,.309-.275c.015-.09.025-.182.035-.275a1.987,1.987,0,0,0,.457-.195c.073.057.147.114.222.165a.313.313,0,0,0,.413-.034l.314-.32A.323.323,0,0,0,41.773,22.968Zm-2.025-.422a.816.816,0,0,1-.58-.233.812.812,0,0,1,.559-1.392.792.792,0,0,1,.315.058.813.813,0,0,1-.293,1.567Z" transform="translate(-37.148 -19.142)" fill="#0a2463"/>
      </g>
      <g id="Group_73" data-name="Group 73" transform="translate(10.221 16.953)">
        <g id="Group_72" data-name="Group 72">
          <g id="Group_71" data-name="Group 71">
            <path id="Path_71" data-name="Path 71" d="M37.977,27.03c-.116-.063-.224-.134-.34-.2a2.956,2.956,0,0,0,0-.689c.116-.072.233-.134.34-.206a.438.438,0,0,0,.179-.546l-.241-.59a.448.448,0,0,0-.519-.259c-.125.036-.25.063-.376.1a3.14,3.14,0,0,0-.492-.483c.036-.125.072-.259.1-.385a.448.448,0,0,0-.259-.519l-.59-.241a.452.452,0,0,0-.546.179c-.072.116-.134.233-.2.34a2.956,2.956,0,0,0-.689,0c-.072-.107-.134-.224-.206-.34a.452.452,0,0,0-.546-.179l-.59.241a.458.458,0,0,0-.259.519c.036.125.063.259.1.385a3.083,3.083,0,0,0-.483.483c-.134-.036-.259-.063-.385-.1a.453.453,0,0,0-.519.259l-.241.59a.448.448,0,0,0,.179.546c.116.072.233.134.34.206a2.956,2.956,0,0,0,0,.689c-.116.063-.224.134-.34.2a.453.453,0,0,0-.179.554l.241.581a.443.443,0,0,0,.519.259c.125-.027.25-.063.385-.1a3.141,3.141,0,0,0,.483.492c-.036.125-.063.25-.1.376a.448.448,0,0,0,.259.519l.59.241a.363.363,0,0,0,.17.036.439.439,0,0,0,.376-.215c.072-.107.134-.224.206-.34a2.956,2.956,0,0,0,.689,0c.063.116.125.233.2.34a.432.432,0,0,0,.546.179l.59-.241a.439.439,0,0,0,.259-.519c-.027-.125-.063-.25-.1-.376a2.845,2.845,0,0,0,.492-.492c.125.036.25.072.376.1a.439.439,0,0,0,.519-.259l.241-.581A.453.453,0,0,0,37.977,27.03Zm-.492.93c-.116-.027-.241-.063-.367-.089a.425.425,0,0,0-.465.152,2.438,2.438,0,0,1-.429.429.45.45,0,0,0-.161.465c.036.125.072.25.1.367l-.537.224c-.063-.107-.134-.215-.2-.322a.441.441,0,0,0-.438-.224,2.307,2.307,0,0,1-.608,0,.441.441,0,0,0-.438.224c-.063.107-.125.215-.2.322l-.537-.224c.036-.116.063-.241.1-.367a.45.45,0,0,0-.161-.465,2.438,2.438,0,0,1-.429-.429.425.425,0,0,0-.465-.152c-.125.027-.241.063-.367.089l-.224-.537c.107-.063.215-.125.331-.188a.442.442,0,0,0,.215-.438,2.375,2.375,0,0,1,0-.617.434.434,0,0,0-.215-.438c-.116-.063-.224-.125-.331-.188l.224-.546c.125.036.241.063.367.1a.457.457,0,0,0,.465-.152,2.489,2.489,0,0,1,.429-.438.445.445,0,0,0,.161-.465c-.036-.116-.063-.241-.1-.367l.537-.224c.072.107.134.215.2.331a.434.434,0,0,0,.438.215,2.307,2.307,0,0,1,.608,0,.434.434,0,0,0,.438-.215c.063-.116.134-.224.2-.331l.537.224c-.027.125-.063.25-.1.367a.44.44,0,0,0,.161.465,2.489,2.489,0,0,1,.429.438.457.457,0,0,0,.465.152c.125-.036.25-.063.367-.1l.224.546-.322.188a.441.441,0,0,0-.224.438,2.375,2.375,0,0,1,0,.617.448.448,0,0,0,.224.438l.322.188Z" transform="translate(-31.183 -22.983)"/>
          </g>
        </g>
      </g>
      <g id="Group_76" data-name="Group 76" transform="translate(12.108 18.846)">
        <g id="Group_75" data-name="Group 75">
          <g id="Group_74" data-name="Group 74">
            <path id="Path_72" data-name="Path 72" d="M36.4,26.091A1.616,1.616,0,1,0,34.292,28.2a1.653,1.653,0,0,0,.617.125A1.622,1.622,0,0,0,36.4,26.091Zm-1.055,1.672a1.145,1.145,0,0,1-.876,0,1.137,1.137,0,0,1,0-2.1,1.1,1.1,0,0,1,.438-.089,1.139,1.139,0,0,1,.438,2.191Z" transform="translate(-33.293 -25.1)"/>
          </g>
        </g>
      </g>
      <g id="Group_79" data-name="Group 79" transform="translate(15.424 13.384)">
        <g id="Group_78" data-name="Group 78">
          <g id="Group_77" data-name="Group 77">
            <path id="Path_73" data-name="Path 73" d="M42.055,21.078l-.25-.036a2.211,2.211,0,0,0-.17-.41c.052-.067.1-.135.152-.2a.376.376,0,0,0-.037-.487l-.326-.326a.377.377,0,0,0-.488-.037c-.067.049-.134.1-.2.152a2.2,2.2,0,0,0-.409-.17c-.012-.085-.023-.168-.036-.25a.378.378,0,0,0-.371-.319h-.461a.378.378,0,0,0-.371.319c-.013.081-.024.165-.036.25a2.143,2.143,0,0,0-.409.17c-.068-.052-.135-.1-.2-.152a.377.377,0,0,0-.488.037l-.326.326a.376.376,0,0,0-.037.487c.049.067.1.135.152.2a2.274,2.274,0,0,0-.17.41l-.25.036a.376.376,0,0,0-.319.37v.462a.377.377,0,0,0,.319.371c.081.012.165.024.25.035a2.186,2.186,0,0,0,.17.41c-.052.067-.1.135-.152.2a.376.376,0,0,0,.037.487l.326.326a.378.378,0,0,0,.488.038l.2-.152a2.2,2.2,0,0,0,.409.169c.012.085.023.169.036.25a.378.378,0,0,0,.371.319h.461a.377.377,0,0,0,.371-.319c.013-.081.024-.165.036-.25a2.2,2.2,0,0,0,.409-.169l.2.152a.378.378,0,0,0,.488-.038l.326-.326a.376.376,0,0,0,.037-.487c-.049-.067-.1-.135-.152-.2a2.247,2.247,0,0,0,.17-.41c.084-.011.168-.023.25-.035a.377.377,0,0,0,.319-.371v-.462A.376.376,0,0,0,42.055,21.078Zm-.131.768-.225.031a.373.373,0,0,0-.313.271,1.8,1.8,0,0,1-.165.4.373.373,0,0,0,.029.413c.047.061.093.122.138.182l-.235.235c-.061-.045-.122-.091-.182-.138a.376.376,0,0,0-.414-.03,1.748,1.748,0,0,1-.4.165.375.375,0,0,0-.272.313c-.01.076-.021.152-.031.226h-.333c-.011-.074-.021-.15-.031-.225a.375.375,0,0,0-.272-.314,1.748,1.748,0,0,1-.4-.165.376.376,0,0,0-.414.03c-.06.047-.121.093-.182.138l-.235-.235c.045-.061.09-.122.138-.182a.373.373,0,0,0,.029-.413,1.754,1.754,0,0,1-.165-.4.373.373,0,0,0-.313-.271l-.225-.031v-.334l.225-.03a.374.374,0,0,0,.313-.272,1.754,1.754,0,0,1,.165-.4.373.373,0,0,0-.029-.413c-.047-.061-.093-.122-.138-.182l.235-.236c.06.046.122.091.182.138a.374.374,0,0,0,.414.03,1.748,1.748,0,0,1,.4-.165.374.374,0,0,0,.272-.313c.01-.076.021-.152.031-.226h.333c.011.074.021.15.031.226a.374.374,0,0,0,.272.313,1.748,1.748,0,0,1,.4.165.376.376,0,0,0,.414-.03c.06-.047.121-.092.182-.138l.235.236c-.045.06-.09.121-.138.182a.374.374,0,0,0-.029.414,1.771,1.771,0,0,1,.165.4.374.374,0,0,0,.313.272l.225.03v.334Z" transform="translate(-37.001 -18.992)"/>
          </g>
        </g>
      </g>
      <g id="Group_82" data-name="Group 82" transform="translate(17.152 15.112)">
        <g id="Group_81" data-name="Group 81">
          <g id="Group_80" data-name="Group 80">
            <path id="Path_74" data-name="Path 74" d="M39.892,20.925a.958.958,0,1,0,.959.959A.96.96,0,0,0,39.892,20.925Zm0,1.491a.533.533,0,1,1,.532-.532A.533.533,0,0,1,39.892,22.416Z" transform="translate(-38.933 -20.925)"/>
          </g>
        </g>
      </g>
      <g id="Group_83" data-name="Group 83" transform="translate(7.114 30.174)">
        <rect id="Rectangle_10" data-name="Rectangle 10" width="11.752" height="0.671" fill="#0a215a"/>
      </g>
      <g id="Group_84" data-name="Group 84" transform="translate(7.114 35.077)">
        <rect id="Rectangle_11" data-name="Rectangle 11" width="9.766" height="0.671" fill="#0a215a"/>
      </g>
      <g id="Group_85" data-name="Group 85" transform="translate(7.114 31.809)">
        <rect id="Rectangle_12" data-name="Rectangle 12" width="9.766" height="0.671" fill="#4c5f8d"/>
      </g>
      <g id="Group_86" data-name="Group 86" transform="translate(7.114 33.443)">
        <rect id="Rectangle_13" data-name="Rectangle 13" width="7.995" height="0.671" fill="#4c5f8d"/>
      </g>
      <g id="Group_87" data-name="Group 87" transform="translate(15.62 33.443)">
        <rect id="Rectangle_14" data-name="Rectangle 14" width="4.346" height="0.671" fill="#fc6c74"/>
      </g>
    </g>
    <g id="Rectangle_173" data-name="Rectangle 173" transform="translate(896 1412)" fill="#fff" stroke="#707070" stroke-width="1" opacity="0">
      <rect width="60" height="60" stroke="none"/>
      <rect x="0.5" y="0.5" width="59" height="59" fill="none"/>
    </g>
  </g>
</svg>
