<svg xmlns="http://www.w3.org/2000/svg" width="60" height="60" viewBox="0 0 60 60">
  <g id="iot_app_development_icon" transform="translate(-275 -958)">
    <g id="Group_17" data-name="Group 17" transform="translate(277.331 961.282)">
      <g id="Group_16" data-name="Group 16" transform="translate(0 51.059)">
        <rect id="Rectangle_4" data-name="Rectangle 4" width="54.428" height="1.779"/>
      </g>
      <path id="Path_16" data-name="Path 16" d="M56.007,23.654,52.876,21,51.1,19.5,47.113,16.13l-1.779-1.5L32.466,3.741a.833.833,0,0,0-.542-.213c-.036,0-.062.009-.089.009l-.062.009a.832.832,0,0,0-.578.2L7.662,23.654a.887.887,0,0,0-.1,1.254l2.624,3.1a.883.883,0,0,0,.676.311.246.246,0,0,0,.08-.009V54.585h41.9V28.323a.883.883,0,0,0,.631-.311l2.632-3.1a.925.925,0,0,0,.213-.649A.913.913,0,0,0,56.007,23.654Zm-8.7.3-1.977-1.671,2.873,2.428ZM52.69,26.18l-1.734-1.467-2.108-1.779-1.734-1.467-1.779-1.5L32.021,8.7l-.24.2-11.223,9.16L10.971,26.18,9.494,24.436,31.835,5.529l13.5,11.428,1.779,1.5L51.1,21.831l1.779,1.5,1.3,1.1Z" transform="translate(-4.503 -3.528)" fill="#ddeff6"/>
      <path id="Path_17" data-name="Path 17" d="M56.493,24.259v.062a.951.951,0,0,1-.213.587l-2.632,3.1a.883.883,0,0,1-.631.311v.729H51.237v-1.93l-2.855-2.41L45.51,22.284l-3.388-2.864-9.827-8.378-10.423,8.4L12.9,27.016v2.037H11.119v-.738a.246.246,0,0,1-.08.009.883.883,0,0,1-.676-.311l-2.624-3.1a.887.887,0,0,1,.1-1.254L31.369,3.741a.832.832,0,0,1,.578-.2l.062-.009c.027,0,.053-.009.089-.009a.833.833,0,0,1,.543.213L45.51,14.627V9.487h7.542V21l3.13,2.65A.913.913,0,0,1,56.493,24.259Z" transform="translate(-4.523 -3.528)" fill="#ff7f11"/>
      <path id="Path_18" data-name="Path 18" d="M56.182,23.654,53.051,21V9.487H45.51v5.14L32.641,3.741a.833.833,0,0,0-.543-.213c-.036,0-.062.009-.089.009l-.062.009a.832.832,0,0,0-.578.2L7.837,23.654a.887.887,0,0,0-.1,1.254l2.624,3.1a.883.883,0,0,0,.676.311.246.246,0,0,0,.08-.009v27.16a.892.892,0,0,0,.889.889H52.126a.892.892,0,0,0,.889-.889V28.323a.883.883,0,0,0,.631-.311l2.632-3.1a.951.951,0,0,0,.213-.587v-.062A.913.913,0,0,0,56.182,23.654ZM47.288,11.265h3.984V19.5L47.288,16.13Zm3.949,43.32H12.9V27.016l8.973-7.577,10.423-8.4,9.827,8.378,3.388,2.864,2.873,2.428,2.855,2.41ZM52.865,26.18,51.13,24.712l-2.108-1.779-1.734-1.467-1.779-1.5L32.2,8.7l-.24.2-11.223,9.16L11.146,26.18,9.669,24.436,32.01,5.529l13.5,11.428,1.779,1.5,3.984,3.371,1.779,1.5,1.3,1.1Z" transform="translate(-4.523 -3.528)"/>
      <path id="Path_19" data-name="Path 19" d="M33.767,30.248a14.948,14.948,0,0,0-10.886,4.726l1.557,1.456a12.786,12.786,0,0,1,9.328-4.054A12.65,12.65,0,0,1,43.1,36.419l1.556-1.456A15,15,0,0,0,33.767,30.248Zm0,4.256A10.672,10.672,0,0,0,25.883,38l1.579,1.434a8.511,8.511,0,0,1,12.61-.012L41.651,38A10.628,10.628,0,0,0,33.767,34.5Zm0,4.256a6.347,6.347,0,0,0-4.894,2.284L30.5,42.411a4.4,4.4,0,0,1,6.54.011l1.636-1.366A6.4,6.4,0,0,0,33.767,38.76Zm0,4.256a2.128,2.128,0,1,0,2.128,2.127A2.126,2.126,0,0,0,33.767,43.015Z" transform="translate(-6.222 -6.485)"/>
    </g>
    <g id="Rectangle_169" data-name="Rectangle 169" transform="translate(275 958)" fill="#fff" stroke="#707070" stroke-width="1" opacity="0">
      <rect width="60" height="60" stroke="none"/>
      <rect x="0.5" y="0.5" width="59" height="59" fill="none"/>
    </g>
  </g>
</svg>
